# xmcd
#
# Track frame offsets:
#	187
#	22775
#	38300
#	63425
#	86225
#	110225
#	130925
#	152887
#	164075
#	185750
#	206887
#
# Disc length: 3089 seconds
#
# Revision: 4
# Processed by: cddbd v1.5PL3 Copyright (c) Steve Scherf et al.
# Submitted via: CDex 1.50Beta5
#
DISCID=9b0c0f0b
DTITLE=高橋洋子 - ピチカート
DYEAR=1992
DGENRE=New Age
TTITLE0=Magic Kiss
TTITLE1=もう一度逢いたくて
TTITLE2=Something in the Air
TTITLE3=One Heart to Love
TTITLE4=P.S.I miss you
TTITLE5=おかえり
TTITLE6=Loving you
TTITLE7=幻の春
TTITLE8=眠れぬ夜に
TTITLE9=Woman’s Love
TTITLE10=ピチカート
EXTD=
EXTT0=
EXTT1=
EXTT2=
EXTT3=
EXTT4=
EXTT5=
EXTT6=
EXTT7=
EXTT8=
EXTT9=
EXTT10=
PLAYORDER=
